<svg width="404" height="858" viewBox="0 0 404 858" fill="none" xmlns="http://www.w3.org/2000/svg">
<path fill-rule="evenodd" clip-rule="evenodd" d="M-77.6116 0.937392C-136.54 7.31162 -195.2 25.8121 -249.914 57.4014C-458.886 178.051 -531.236 443.963 -411.515 651.325C-291.792 858.69 -25.3332 928.987 183.639 808.337C392.608 687.688 464.962 421.778 345.239 214.413C339.7 204.819 333.846 195.515 327.699 186.516C337.377 207.908 345.427 230.386 351.66 253.833C395.068 417.089 338.83 583.888 220.259 690.103C296.9 587.094 327.621 451.814 292.279 318.885C266.892 223.409 211.39 144.051 138.599 88.1636C215.619 207.793 231.764 363.093 167.827 502.797C97.1993 657.108 -52.2764 751.189 -211.076 758.787C-86.5474 727.177 23.2359 641.463 80.7457 515.815C162.756 336.632 113.017 131.796 -27.9288 9.47316C-44.2294 5.6864 -60.8185 2.82391 -77.6116 0.937392Z" fill="url(#paint0_linear_164_167)"/>
<defs>
<linearGradient id="paint0_linear_164_167" x1="99.96" y1="751.222" x2="-368.762" y2="146.316" gradientUnits="userSpaceOnUse">
<stop stop-color="#348CF4"/>
<stop offset="1" stop-color="#69E166"/>
</linearGradient>
</defs>
</svg>
