<svg width="36" height="36" viewBox="0 0 36 36" fill="none" xmlns="http://www.w3.org/2000/svg">
<path d="M12.48 18.1423C12.4879 16.6071 12.8378 15.093 13.5038 13.7106C14.17 12.3282 15.1355 11.1124 16.3301 10.1521L13.9684 7.78388C13.628 7.44267 13.1663 7.25098 12.685 7.25098C12.2037 7.25098 11.742 7.44267 11.4016 7.78388L2.49629 16.7136C2.156 17.0549 1.96484 17.5178 1.96484 18.0005C1.96484 18.4831 2.156 18.946 2.49629 19.2873L11.4016 28.217C11.742 28.5582 12.2037 28.7499 12.685 28.7499C13.1663 28.7499 13.628 28.5582 13.9684 28.217L16.1495 26.025C15.0015 25.059 14.0781 23.8529 13.4441 22.4912C12.8103 21.1294 12.4811 19.6451 12.48 18.1423Z" fill="white"/>
<path d="M12.48 18.1423C12.4879 16.6071 12.8378 15.093 13.5038 13.7106C14.17 12.3282 15.1355 11.1124 16.3301 10.1521L13.9684 7.78388C13.628 7.44267 13.1663 7.25098 12.685 7.25098C12.2037 7.25098 11.742 7.44267 11.4016 7.78388L2.49629 16.7136C2.156 17.0549 1.96484 17.5178 1.96484 18.0005C1.96484 18.4831 2.156 18.946 2.49629 19.2873L11.4016 28.217C11.742 28.5582 12.2037 28.7499 12.685 28.7499C13.1663 28.7499 13.628 28.5582 13.9684 28.217L16.1495 26.025C15.0015 25.059 14.0781 23.8529 13.4441 22.4912C12.8103 21.1294 12.4811 19.6451 12.48 18.1423Z" fill="url(#paint0_linear_168_178)"/>
<path d="M23.2485 7.66847C20.7141 7.66457 18.2564 8.54274 16.2929 10.1539L22.8016 16.7019C22.9699 16.8702 23.1035 17.0703 23.1946 17.2907C23.2857 17.5111 23.3326 17.7473 23.3326 17.986C23.3326 18.2248 23.2857 18.461 23.1946 18.6814C23.1035 18.9018 22.9699 19.1019 22.8016 19.2702L16.1133 25.994C18.1063 27.6918 20.6361 28.6198 23.2485 28.6112C29.2034 28.6112 34.0363 23.9284 34.0363 18.1471C34.0363 12.3658 29.1937 7.66847 23.2485 7.66847Z" fill="white"/>
<path d="M23.2485 7.66847C20.7141 7.66457 18.2564 8.54274 16.2929 10.1539L22.8016 16.7019C22.9699 16.8702 23.1035 17.0703 23.1946 17.2907C23.2857 17.5111 23.3326 17.7473 23.3326 17.986C23.3326 18.2248 23.2857 18.461 23.1946 18.6814C23.1035 18.9018 22.9699 19.1019 22.8016 19.2702L16.1133 25.994C18.1063 27.6918 20.6361 28.6198 23.2485 28.6112C29.2034 28.6112 34.0363 23.9284 34.0363 18.1471C34.0363 12.3658 29.1937 7.66847 23.2485 7.66847Z" fill="url(#paint1_linear_168_178)"/>
<defs>
<linearGradient id="paint0_linear_168_178" x1="-2.948" y1="7.93031" x2="17.4407" y2="9.35985" gradientUnits="userSpaceOnUse">
<stop stop-color="#C9FFD5"/>
<stop offset="1" stop-color="#6FCF97"/>
</linearGradient>
<linearGradient id="paint1_linear_168_178" x1="9.98368" y1="8.33022" x2="35.3425" y2="10.6075" gradientUnits="userSpaceOnUse">
<stop stop-color="#C9FFD5"/>
<stop offset="1" stop-color="#6FCF97"/>
</linearGradient>
</defs>
</svg>
