<svg width="22" height="18" viewBox="0 0 22 18" fill="none" xmlns="http://www.w3.org/2000/svg">
<path d="M18.4034 2.09203C17.0224 1.44592 15.5459 0.976359 14.0022 0.708984C13.8126 1.05175 13.5911 1.51278 13.4384 1.87952C11.7974 1.63273 10.1714 1.63273 8.56062 1.87952C8.40794 1.51278 8.18141 1.05175 7.99013 0.708984C6.44475 0.976359 4.96648 1.44765 3.58554 2.09546C0.800158 6.30453 0.045088 10.4091 0.422624 14.4553C2.27003 15.8349 4.06039 16.673 5.82054 17.2214C6.25513 16.6232 6.64273 15.9874 6.97663 15.3173C6.3407 15.0757 5.73161 14.7775 5.1561 14.4313C5.30878 14.3182 5.45813 14.1999 5.60241 14.0783C9.11265 15.7201 12.9266 15.7201 16.3949 14.0783C16.5409 14.1999 16.6902 14.3182 16.8412 14.4313C16.264 14.7792 15.6533 15.0774 15.0173 15.3191C15.3512 15.9874 15.7372 16.625 16.1734 17.2231C17.9353 16.6747 19.7273 15.8366 21.5747 14.4553C22.0177 9.76467 20.818 5.69784 18.4034 2.09203ZM7.45485 11.9669C6.40112 11.9669 5.53697 10.9832 5.53697 9.78523C5.53697 8.58729 6.38266 7.60186 7.45485 7.60186C8.52707 7.60186 9.39119 8.58556 9.37274 9.78523C9.37441 10.9832 8.52707 11.9669 7.45485 11.9669ZM14.5425 11.9669C13.4887 11.9669 12.6246 10.9832 12.6246 9.78523C12.6246 8.58729 13.4702 7.60186 14.5425 7.60186C15.6147 7.60186 16.4788 8.58556 16.4604 9.78523C16.4604 10.9832 15.6147 11.9669 14.5425 11.9669Z" fill="#6FCF97"/>
</svg>
