<svg width="34" height="33" viewBox="0 0 34 33" fill="none" xmlns="http://www.w3.org/2000/svg">
<path d="M17 0.5C7.88925 0.5 0.5 7.88788 0.5 17C0.5 24.2903 5.22725 30.475 11.7846 32.6571C12.6082 32.8098 12.875 32.2983 12.875 31.8638V28.792C8.28525 29.7903 7.32963 26.845 7.32963 26.845C6.57888 24.9379 5.49675 24.4305 5.49675 24.4305C3.99938 23.4061 5.61088 23.4281 5.61088 23.4281C7.26775 23.5436 8.1395 25.129 8.1395 25.129C9.61075 27.6508 11.9991 26.922 12.941 26.4999C13.0881 25.4343 13.5158 24.7055 13.9888 24.2944C10.3244 23.875 6.47162 22.4601 6.47162 16.1393C6.47162 14.3366 7.1165 12.8654 8.17112 11.7104C8.00063 11.2938 7.4355 9.61488 8.332 7.34338C8.332 7.34338 9.718 6.90063 12.8709 9.03463C14.1867 8.66888 15.5975 8.486 17 8.47913C18.4025 8.486 19.8146 8.66888 21.1332 9.03463C24.2834 6.90063 25.6666 7.34338 25.6666 7.34338C26.5645 9.61625 25.9994 11.2951 25.8289 11.7104C26.8876 12.8654 27.527 14.338 27.527 16.1393C27.527 22.4766 23.6674 23.8723 19.9934 24.2806C20.5846 24.7921 21.125 25.7959 21.125 27.3359V31.8638C21.125 32.3024 21.389 32.818 22.2264 32.6558C28.7782 30.4709 33.5 24.2875 33.5 17C33.5 7.88788 26.1121 0.5 17 0.5Z" fill="#AFA4F3"/>
<path d="M17 0.5C7.88925 0.5 0.5 7.88788 0.5 17C0.5 24.2903 5.22725 30.475 11.7846 32.6571C12.6082 32.8098 12.875 32.2983 12.875 31.8638V28.792C8.28525 29.7903 7.32963 26.845 7.32963 26.845C6.57888 24.9379 5.49675 24.4305 5.49675 24.4305C3.99938 23.4061 5.61088 23.4281 5.61088 23.4281C7.26775 23.5436 8.1395 25.129 8.1395 25.129C9.61075 27.6508 11.9991 26.922 12.941 26.4999C13.0881 25.4343 13.5158 24.7055 13.9888 24.2944C10.3244 23.875 6.47162 22.4601 6.47162 16.1393C6.47162 14.3366 7.1165 12.8654 8.17112 11.7104C8.00063 11.2938 7.4355 9.61488 8.332 7.34338C8.332 7.34338 9.718 6.90063 12.8709 9.03463C14.1867 8.66888 15.5975 8.486 17 8.47913C18.4025 8.486 19.8146 8.66888 21.1332 9.03463C24.2834 6.90063 25.6666 7.34338 25.6666 7.34338C26.5645 9.61625 25.9994 11.2951 25.8289 11.7104C26.8876 12.8654 27.527 14.338 27.527 16.1393C27.527 22.4766 23.6674 23.8723 19.9934 24.2806C20.5846 24.7921 21.125 25.7959 21.125 27.3359V31.8638C21.125 32.3024 21.389 32.818 22.2264 32.6558C28.7782 30.4709 33.5 24.2875 33.5 17C33.5 7.88788 26.1121 0.5 17 0.5Z" fill="url(#paint0_linear_164_252)"/>
<defs>
<linearGradient id="paint0_linear_164_252" x1="-10.7858" y1="1.51704" x2="35.7429" y2="6.52285" gradientUnits="userSpaceOnUse">
<stop stop-color="#C9FFD5"/>
<stop offset="1" stop-color="#6FCF97"/>
</linearGradient>
</defs>
</svg>
