<svg width="144" height="44" viewBox="0 0 144 44" fill="none" xmlns="http://www.w3.org/2000/svg">
<path d="M52.8281 15.6313H54.6749L58.3378 27.7928L62.0316 15.6313H63.7859L67.5821 27.7928L71.1423 15.6313H72.9895L68.4951 30.1051H66.638L62.8115 18.0148L59.2307 30.1051H57.3733L52.8281 15.6313Z" fill="#F2F2F2"/>
<path d="M83.1523 15.6313H85.2144L88.929 21.6102L92.7252 15.6313H94.6746L89.7088 23.2501V30.1051H87.9644V23.2501L83.1523 15.6313Z" fill="#F2F2F2"/>
<path d="M106.58 15.6313H108.786L116.727 27.742V15.6313H118.472V30.1051H116.265L108.324 17.974V30.1051H106.58V15.6313Z" fill="#F2F2F2"/>
<path d="M133.865 17.1593V28.5772H135.989C136.297 28.5772 136.55 28.5738 136.748 28.567C136.954 28.5602 137.227 28.5398 137.569 28.506C137.918 28.472 138.216 28.421 138.462 28.3531C138.715 28.2851 138.999 28.1868 139.313 28.0578C139.635 27.9287 139.919 27.7724 140.165 27.5893C140.411 27.4058 140.657 27.1715 140.904 26.8863C141.15 26.6012 141.365 26.2786 141.55 25.9188C142.002 25.0563 142.227 24.0073 142.227 22.7714C142.227 21.9158 142.101 21.1451 141.848 20.4593C141.601 19.7666 141.27 19.2065 140.853 18.7786C140.442 18.3442 140.001 18.0012 139.529 17.7499C139.064 17.4987 138.575 17.329 138.062 17.2406C137.761 17.1863 137.306 17.1593 136.697 17.1593H133.865ZM136.636 15.6313C137.58 15.6313 138.438 15.7264 139.211 15.9165C139.984 16.0999 140.63 16.3613 141.15 16.7008C141.677 17.0403 142.128 17.4239 142.504 17.8517C142.881 18.2796 143.171 18.7584 143.376 19.2879C143.588 19.8108 143.742 20.3269 143.838 20.8361C143.934 21.3454 143.982 21.8751 143.982 22.4252C143.982 23.0566 143.934 23.6643 143.838 24.2483C143.742 24.8322 143.575 25.4265 143.336 26.0308C143.103 26.6352 142.802 27.1783 142.432 27.6605C142.07 28.1358 141.598 28.567 141.016 28.9541C140.435 29.3343 139.775 29.6162 139.036 29.7995C138.653 29.8945 138.226 29.9658 137.754 30.0134C137.282 30.0609 136.892 30.0881 136.585 30.0949C136.276 30.1015 135.842 30.1051 135.281 30.1051H132.121V15.6313H136.636Z" fill="#F2F2F2"/>
<path fill-rule="evenodd" clip-rule="evenodd" d="M41.7859 30.9352C42.9916 28.205 43.6617 25.1813 43.6617 22C43.6617 9.84973 33.8875 0 21.8308 0C9.774 0 0 9.84973 0 22C0 34.1501 9.774 44 21.8308 44C22.3887 44 22.9418 43.9789 23.489 43.9375C22.3125 43.8209 21.1296 43.606 19.9502 43.2875C11.7382 41.0702 5.8804 34.4184 4.23387 26.5736C6.79627 32.5092 11.922 37.2548 18.6085 39.0603C23.4111 40.357 28.269 39.9347 32.5388 38.1675C25.383 38.5143 18.2042 35.3084 13.7219 29.003C8.77094 22.0381 8.43163 13.1512 12.0983 6.03507C10.3415 12.2612 11.3153 19.2066 15.3466 24.8778C21.0955 32.9653 31.2801 35.9534 40.1629 32.8869C40.7384 32.2714 41.2809 31.62 41.7859 30.9352Z" fill="url(#paint0_linear_1_14)"/>
<defs>
<linearGradient id="paint0_linear_1_14" x1="4.59737" y1="19.789" x2="42.7766" y2="14.5788" gradientUnits="userSpaceOnUse">
<stop stop-color="#348CF4"/>
<stop offset="1" stop-color="#69E166"/>
</linearGradient>
</defs>
</svg>
