<svg width="447" height="788" viewBox="0 0 447 788" fill="none" xmlns="http://www.w3.org/2000/svg">
<path d="M64.3556 113.727V75.1218L90.625 44.2377H127.711M64.3556 113.727L16.4526 166.23M64.3556 113.727L163.252 126.081M16.4526 166.23L1 237.263M16.4526 166.23L45.8125 203.291M1 237.263L24.1789 359.255M1 237.263L56.6293 295.943M24.1789 359.255L102.987 439.554M24.1789 359.255L90.625 343.813M102.987 439.554L169.433 421.024M102.987 439.554L90.625 343.813M169.433 421.024L208.065 390.139M169.433 421.024L143.164 295.943M208.065 390.139L242.06 421.024M208.065 390.139L255.968 323.739M242.06 421.024L280.692 431.833M242.06 421.024L255.968 323.739M280.692 431.833V502.866M280.692 431.833L306.961 390.139M280.692 502.866L370.317 581.621M280.692 502.866L356.409 439.554M370.317 581.621L356.409 663.464L453.761 754.572M370.317 581.621L446.034 637.212M370.317 581.621L418.22 538.383M453.761 754.572L526.388 787L582.017 729.864L599.015 663.464L582.017 637.212M453.761 754.572L530.147 692.804M582.017 637.212L631.466 569.267L599.015 484.336M582.017 637.212L538.75 590.886M599.015 484.336L680.914 359.255L718 255.794L631.466 282.045M599.015 484.336L548.022 397.861M599.015 484.336L478.485 459.629M631.466 282.045L582.017 237.263M631.466 282.045L620.649 351.534M582.017 237.263L526.388 323.739M582.017 237.263L530.147 166.23M498.573 122.992L435.218 44.2377M498.573 122.992L530.147 166.23M498.573 122.992L435.218 126.081L382.679 96.7407M435.218 44.2377L333.231 30.3399L306.961 58.1356M435.218 44.2377L382.679 96.7407M306.961 58.1356L242.06 44.2377M306.961 58.1356L280.692 113.727M242.06 44.2377L223.517 1L127.711 44.2377M242.06 44.2377L163.252 126.081M242.06 44.2377L175.614 56.5914M127.711 44.2377L175.614 56.5914M163.252 126.081L102.987 220.277M163.252 126.081L195.703 220.277M163.252 126.081L45.8125 203.291M163.252 126.081L175.614 56.5914M163.252 126.081L280.692 113.727M102.987 220.277L143.164 295.943M102.987 220.277L56.6293 295.943M102.987 220.277L45.8125 203.291M102.987 220.277H195.703M143.164 295.943L195.703 220.277M143.164 295.943L90.625 343.813M255.968 323.739L272.966 190.937M255.968 323.739L370.317 306.752M272.966 190.937L195.703 220.277M272.966 190.937L382.679 96.7407M272.966 190.937L280.692 113.727M272.966 190.937L393.496 220.277M195.703 220.277L280.692 113.727M90.625 343.813L56.6293 295.943M280.692 113.727L382.679 96.7407M382.679 96.7407L393.496 220.277M393.496 220.277L370.317 306.752M393.496 220.277L530.147 166.23M370.317 306.752L306.961 390.139M370.317 306.752L526.388 323.739M306.961 390.139L356.409 439.554M356.409 439.554L435.218 390.139M356.409 439.554L418.22 538.383M435.218 390.139L478.485 459.629M435.218 390.139L478.485 246.528L530.147 166.23M478.485 459.629L548.022 397.861M478.485 459.629L538.75 590.886M478.485 459.629L418.22 538.383M548.022 397.861L526.388 323.739M548.022 397.861L620.649 351.534M526.388 323.739L620.649 351.534M538.75 590.886L530.147 692.804M538.75 590.886L418.22 538.383M530.147 692.804L446.034 637.212M446.034 637.212L418.22 538.383" stroke="#31253F"/>
</svg>
