<svg width="243" height="866" viewBox="0 0 243 866" fill="none" xmlns="http://www.w3.org/2000/svg">
<path d="M60.7848 41.3984L37.4694 10.199L-2.43118 1.11822L-32.4286 23.5354M60.7848 41.3984L131.241 54.8742M60.7848 41.3984L-11.7473 111.161M131.241 54.8742L186.64 102.941M131.241 54.8742L129.875 102.573M186.64 102.941L241.568 215.542M186.64 102.941L177.083 183.99M241.568 215.542L226.32 328.073M241.568 215.542L178.497 243.226M226.32 328.073L161.383 353.262M226.32 328.073L178.497 243.226M161.383 353.262L111.484 351.653M161.383 353.262L107.089 236.296M111.484 351.653L102.638 397.162M111.484 351.653L32.6344 326.946M102.638 397.162L77.9195 429.249M102.638 397.162L32.6344 326.946M77.9195 429.249L120.82 486.656M77.9195 429.249L31.4906 411.432M120.82 486.656L95.8898 604.478M120.82 486.656L21.3379 481.257M95.8898 604.478L156.568 662.214L132.849 794.69M95.8898 604.478L68.2194 695.173M95.8898 604.478L31.0298 598.49M132.849 794.69L93.689 864.798L14.186 852.248L-39.6654 808.86L-41.7711 777.37M132.849 794.69L33.759 790.943M-41.7711 777.37L-122.803 752.348L-147.849 664.094M-41.7711 777.37L-34.7527 713.777M-147.849 664.094L-289.636 612.512L-382.118 551.315L-296.27 520.224M-147.849 664.094L-158.829 563.384M-147.849 664.094L-65.2795 571.271M-296.27 520.224L-283.319 454.143M-296.27 520.224L-245.553 569.845M-283.319 454.143L-186.097 490.404M-283.319 454.143L-284.264 365.382M-284.839 311.354L-281.157 209.411M-284.839 311.354L-284.264 365.382M-284.839 311.354L-231.728 275.554L-206.952 220.085M-281.157 209.411L-207.058 136.532L-169.022 143.117M-281.157 209.411L-206.952 220.085M-169.022 143.117L-124.921 92.655M-169.022 143.117L-114.2 172.165M-124.921 92.655L-136.035 46.503L-32.4286 23.5354M-124.921 92.655L-11.7473 111.161M-124.921 92.655L-63.7143 62.4747M-32.4286 23.5354L-63.7143 62.4747M-11.7473 111.161L93.8882 150.86M-11.7473 111.161L18.8947 206.903M-11.7473 111.161L129.875 102.573M-11.7473 111.161L-63.7143 62.4747M-11.7473 111.161L-114.2 172.165M93.8882 150.86L107.089 236.296M93.8882 150.86L177.083 183.99M93.8882 150.86L129.875 102.573M93.8882 150.86L18.8947 206.903M107.089 236.296L18.8947 206.903M107.089 236.296L178.497 243.226M32.6344 326.946L-61.3196 229.894M32.6344 326.946L-70.1164 382.337M-61.3196 229.894L18.8947 206.903M-61.3196 229.894L-206.952 220.085M-61.3196 229.894L-114.2 172.165M-61.3196 229.894L-141.091 326.461M18.8947 206.903L-114.2 172.165M178.497 243.226L177.083 183.99M-114.2 172.165L-206.952 220.085M-206.952 220.085L-141.091 326.461M-141.091 326.461L-70.1164 382.337M-141.091 326.461L-284.264 365.382M-70.1164 382.337L31.4906 411.432M-70.1164 382.337L-186.097 490.404M31.4906 411.432L21.3379 481.257M21.3379 481.257L-72.2504 488.958M21.3379 481.257L31.0298 598.49M-72.2504 488.958L-65.2795 571.271M-72.2504 488.958L-193.981 399.05L-284.264 365.382M-65.2795 571.271L-158.829 563.384M-65.2795 571.271L-34.7527 713.777M-65.2795 571.271L31.0298 598.49M-158.829 563.384L-186.097 490.404M-158.829 563.384L-245.553 569.845M-186.097 490.404L-245.553 569.845M-34.7527 713.777L33.759 790.943M-34.7527 713.777L31.0298 598.49M33.759 790.943L68.2194 695.173M68.2194 695.173L31.0298 598.49" stroke="#31253F"/>
</svg>
