<svg width="79" height="79" viewBox="0 0 79 79" fill="none" xmlns="http://www.w3.org/2000/svg">
<circle cx="39.5" cy="39.5" r="39.5" fill="#18371B"/>
<path d="M61.7738 39.6724C63.9277 39.6724 65.7038 41.4281 65.3819 43.5578C64.8983 46.7574 63.8198 49.8502 62.1905 52.6724C59.9085 56.6249 56.6263 59.907 52.6738 62.189C48.7213 64.471 44.2378 65.6724 39.6738 65.6724C36.4151 65.6724 33.1974 65.0599 30.1847 63.8789C28.1794 63.0928 27.5469 60.6769 28.6238 58.8115C29.7008 56.9462 32.082 56.353 34.1337 57.0087C35.9174 57.5786 37.7858 57.8724 39.6738 57.8724C42.8686 57.8724 46.0071 57.0314 48.7738 55.434C51.5406 53.8366 53.8381 51.5391 55.4355 48.7724C56.3795 47.1372 57.0594 45.3723 57.4576 43.5426C57.9156 41.438 59.6199 39.6724 61.7738 39.6724Z" fill="white"/>
<path d="M25.2337 56.4033C23.8265 58.0339 21.3369 58.2313 19.9349 56.5961C17.8287 54.1395 16.1919 51.3023 15.12 48.2249C13.6187 43.9149 13.2784 39.2857 14.1333 34.8026C14.9882 30.3194 17.0081 26.1402 19.99 22.6851C22.1192 20.2181 24.6852 18.1823 27.5476 16.6732C29.453 15.6687 31.6952 16.7684 32.4037 18.8024C33.1122 20.8365 32.0054 23.0267 30.1686 24.1516C28.5717 25.1295 27.1286 26.352 25.895 27.7814C23.8076 30.1999 22.3937 33.1254 21.7953 36.2636C21.1968 39.4018 21.4351 42.6422 22.4859 45.6592C23.107 47.4422 23.9989 49.1101 25.1239 50.607C26.4179 52.3288 26.641 54.7727 25.2337 56.4033Z" fill="white"/>
<path d="M36.2914 17.9302C35.9537 15.8029 37.4094 13.7735 39.5632 13.7575C44.8163 13.7185 49.9922 15.2728 54.3854 18.2629C58.7785 21.2529 62.1232 25.4977 64.014 30.3989C64.7892 32.4084 63.4353 34.5071 61.3324 34.9733C59.2296 35.4395 57.1836 34.0846 56.2808 32.129C54.9075 29.1541 52.7452 26.5817 49.9966 24.7111C47.2481 22.8404 44.0619 21.7725 40.7906 21.5862C38.6402 21.4638 36.6291 20.0575 36.2914 17.9302Z" fill="#71D29A"/>
<path d="M36.3071 18.0289C35.9607 15.8471 37.4541 13.7649 39.6632 13.7569C44.882 13.7382 50.0201 15.2918 54.3854 18.2629C58.7506 21.2339 62.0807 25.4438 63.9778 30.3056C64.7808 32.3637 63.3916 34.5168 61.2348 34.995L42.2055 39.2139C41.6236 39.3429 41.0534 38.9105 40.5606 38.5752C40.0679 38.2398 39.4565 37.8679 39.363 37.2792L36.3071 18.0289Z" fill="#71D29A"/>
<path d="M36.3071 18.0289C35.9607 15.8471 37.4541 13.7649 39.6632 13.7569C44.882 13.7382 50.0201 15.2918 54.3854 18.2629C58.7506 21.2339 62.0807 25.4438 63.9778 30.3056C64.7808 32.3637 63.3916 34.5168 61.2348 34.995L42.2055 39.2139C41.6236 39.3429 41.0534 38.9105 40.5606 38.5752C40.0679 38.2398 39.4565 37.8679 39.363 37.2792L36.3071 18.0289Z" fill="url(#paint0_linear_164_171)"/>
<defs>
<linearGradient id="paint0_linear_164_171" x1="35.9992" y1="66.6481" x2="30.0646" y2="13.8975" gradientUnits="userSpaceOnUse">
<stop stop-color="#C9EBFF"/>
<stop offset="1" stop-color="#6FCF97"/>
</linearGradient>
</defs>
</svg>
