<svg width="79" height="79" viewBox="0 0 79 79" fill="none" xmlns="http://www.w3.org/2000/svg">
<circle cx="39.5" cy="39.5" r="39.5" fill="#18371B"/>
<path d="M39.5 67.0007C46.7021 67.0007 53.2576 64.232 58.1602 59.701C59.0957 58.8364 58.86 57.3409 57.7568 56.704L15.4664 32.2876C14.3633 31.6507 12.9504 32.1942 12.6708 33.4368C12.2317 35.3877 12 37.4171 12 39.5007C12 54.6885 24.3122 67.0007 39.5 67.0007Z" fill="white"/>
<path d="M36.8105 12.5244C36.4371 12.3088 36.0035 12.2173 35.5766 12.2783C35.5255 12.2856 35.4744 12.293 35.4234 12.3006C33.7086 12.5554 33.442 14.7103 34.9433 15.5771L62.5 31.4869C64.0004 32.3531 65.7333 31.0466 65.0989 29.4345C65.0801 29.3868 65.0612 29.3392 65.0422 29.2917C64.8818 28.8907 64.5855 28.5603 64.2114 28.3443L36.8105 12.5244Z" fill="url(#paint0_linear_164_181)"/>
<path d="M55.5326 20.5535C57.348 21.6016 58.8562 19.8553 57.2561 18.501C54.7727 16.399 51.9115 14.7295 48.7887 13.609C46.8171 12.9016 46.0596 15.0842 47.8736 16.1316L55.5326 20.5535Z" fill="url(#paint1_linear_164_181)"/>
<path d="M25.6149 18.9434C24.4002 18.2421 24.3034 16.5341 25.5103 15.8196C26.0935 15.4744 26.8192 15.488 27.4061 15.8268L66.276 38.2684C66.7182 38.5237 66.9995 38.99 66.9995 39.5006C66.9995 39.5655 66.9993 39.6304 66.9988 39.6951C66.9889 41.1329 65.4239 41.9272 64.1787 41.2082L25.6149 18.9434Z" fill="url(#paint2_linear_164_181)"/>
<path d="M20.2601 22.1687C19.4346 21.6921 18.3811 21.8596 17.7953 22.6114C17.6737 22.7675 17.5537 22.9248 17.4354 23.0835C16.756 23.9952 17.0747 25.2739 18.0593 25.8423L62.0531 51.2421C63.0365 51.8099 64.3017 51.4482 64.7524 50.406C64.8312 50.2237 64.9081 50.0405 64.9831 49.8562C65.3423 48.973 64.9606 47.9765 64.1349 47.4998L20.2601 22.1687Z" fill="url(#paint3_linear_164_181)"/>
<defs>
<linearGradient id="paint0_linear_164_181" x1="2.48741e-07" y1="13.5" x2="69.9612" y2="22.8379" gradientUnits="userSpaceOnUse">
<stop stop-color="#C9FFD5"/>
<stop offset="1" stop-color="#6FCF97"/>
</linearGradient>
<linearGradient id="paint1_linear_164_181" x1="2.48741e-07" y1="13.5" x2="69.9612" y2="22.8379" gradientUnits="userSpaceOnUse">
<stop stop-color="#C9FFD5"/>
<stop offset="1" stop-color="#6FCF97"/>
</linearGradient>
<linearGradient id="paint2_linear_164_181" x1="2.48741e-07" y1="13.5" x2="69.9612" y2="22.8379" gradientUnits="userSpaceOnUse">
<stop stop-color="#C9FFD5"/>
<stop offset="1" stop-color="#6FCF97"/>
</linearGradient>
<linearGradient id="paint3_linear_164_181" x1="2.48741e-07" y1="13.5" x2="69.9612" y2="22.8379" gradientUnits="userSpaceOnUse">
<stop stop-color="#C9FFD5"/>
<stop offset="1" stop-color="#6FCF97"/>
</linearGradient>
</defs>
</svg>
