<svg width="79" height="79" viewBox="0 0 79 79" fill="none" xmlns="http://www.w3.org/2000/svg">
<circle cx="39.5" cy="39.5" r="39.5" fill="#18371B"/>
<mask id="path-2-inside-1_164_188" fill="white">
<path d="M64 39.5C66.7614 39.5 69.0431 41.7543 68.5773 44.4762C67.7404 49.3663 65.6783 53.9947 62.5482 57.9128C58.3715 63.141 52.5414 66.7938 46.0149 68.2716C39.4885 69.7494 32.6535 68.9644 26.632 66.0455C20.6105 63.1265 15.7603 58.2471 12.8776 52.2081C9.9949 46.1692 9.25104 39.3296 10.7681 32.8121C12.2852 26.2947 15.973 20.4866 21.2262 16.3414C26.4794 12.1963 32.9859 9.96028 39.6774 10.0005C44.6922 10.0307 49.5877 11.3379 53.9161 13.7623C56.3254 15.1118 56.6433 18.3035 54.9068 20.4506L46.0869 31.3558C43.4426 34.6252 45.7696 39.5 49.9746 39.5H64Z"/>
</mask>
<path d="M64 39.5C66.7614 39.5 69.0431 41.7543 68.5773 44.4762C67.7404 49.3663 65.6783 53.9947 62.5482 57.9128C58.3715 63.141 52.5414 66.7938 46.0149 68.2716C39.4885 69.7494 32.6535 68.9644 26.632 66.0455C20.6105 63.1265 15.7603 58.2471 12.8776 52.2081C9.9949 46.1692 9.25104 39.3296 10.7681 32.8121C12.2852 26.2947 15.973 20.4866 21.2262 16.3414C26.4794 12.1963 32.9859 9.96028 39.6774 10.0005C44.6922 10.0307 49.5877 11.3379 53.9161 13.7623C56.3254 15.1118 56.6433 18.3035 54.9068 20.4506L46.0869 31.3558C43.4426 34.6252 45.7696 39.5 49.9746 39.5H64Z" stroke="white" stroke-width="8" mask="url(#path-2-inside-1_164_188)"/>
<mask id="path-3-inside-2_164_188" fill="white">
<path d="M15.0445 40.97C12.288 41.1356 9.87522 39.0222 10.1769 36.2773C10.719 31.3459 12.4998 26.6021 15.3892 22.5033C19.2448 17.034 24.8453 13.038 31.2713 11.1714C37.6974 9.30472 44.5672 9.67831 50.753 12.2308C56.9387 14.7833 62.0729 19.363 65.3126 25.2182C68.5523 31.0734 69.7051 37.856 68.5817 44.4528C67.4583 51.0495 64.1255 57.0683 59.1304 61.5211C54.1353 65.9739 47.7747 68.5962 41.0928 68.9574C36.0852 69.2281 31.1201 68.2168 26.6541 66.0565C24.1682 64.854 23.6594 61.687 25.264 59.4397L33.4139 48.0251C35.8573 44.6029 33.2421 39.8765 29.0447 40.1287L15.0445 40.97Z"/>
</mask>
<path d="M15.0445 40.97C12.288 41.1356 9.87522 39.0222 10.1769 36.2773C10.719 31.3459 12.4998 26.6021 15.3892 22.5033C19.2448 17.034 24.8453 13.038 31.2713 11.1714C37.6974 9.30472 44.5672 9.67831 50.753 12.2308C56.9387 14.7833 62.0729 19.363 65.3126 25.2182C68.5523 31.0734 69.7051 37.856 68.5817 44.4528C67.4583 51.0495 64.1255 57.0683 59.1304 61.5211C54.1353 65.9739 47.7747 68.5962 41.0928 68.9574C36.0852 69.2281 31.1201 68.2168 26.6541 66.0565C24.1682 64.854 23.6594 61.687 25.264 59.4397L33.4139 48.0251C35.8573 44.6029 33.2421 39.8765 29.0447 40.1287L15.0445 40.97Z" stroke="white" stroke-width="8" mask="url(#path-3-inside-2_164_188)"/>
<rect x="27" y="26" width="25" height="25" rx="3" fill="white"/>
<rect x="27" y="26" width="25" height="25" rx="3" fill="url(#paint0_linear_164_188)"/>
<rect x="34" y="33" width="11" height="11" rx="5.5" fill="#2D4830"/>
<defs>
<linearGradient id="paint0_linear_164_188" x1="18.4501" y1="26.79" x2="53.7188" y2="30.4908" gradientUnits="userSpaceOnUse">
<stop stop-color="#C9FFD5"/>
<stop offset="1" stop-color="#6FCF97"/>
</linearGradient>
</defs>
</svg>
