<svg width="22" height="17" viewBox="0 0 22 17" fill="none" xmlns="http://www.w3.org/2000/svg">
<path d="M19.4745 4.06567C19.488 4.24409 19.488 4.42256 19.488 4.60098C19.488 10.0431 15.0887 16.3137 7.04805 16.3137C4.57088 16.3137 2.2697 15.6382 0.333984 14.4657C0.685944 14.5039 1.02432 14.5167 1.38982 14.5167C3.43379 14.5167 5.31538 13.8667 6.81793 12.7579C4.89575 12.7196 3.28491 11.5343 2.72991 9.90294C3.00066 9.94115 3.27137 9.96665 3.55566 9.96665C3.94821 9.96665 4.34079 9.91565 4.70625 9.82648C2.70287 9.44409 1.20028 7.78725 1.20028 5.78627V5.73531C1.78232 6.04119 2.4592 6.23236 3.17658 6.25782C1.99891 5.51859 1.22736 4.25684 1.22736 2.82938C1.22736 2.06469 1.44391 1.36371 1.82295 0.751942C3.97525 3.24998 7.21047 4.88132 10.8382 5.05979C10.7705 4.7539 10.7299 4.43531 10.7299 4.11667C10.7299 1.84802 12.6792 0 15.1022 0C16.361 0 17.4981 0.497058 18.2968 1.3C19.2849 1.12158 20.2324 0.777442 21.0717 0.305885C20.7468 1.26179 20.0565 2.06473 19.1496 2.5745C20.0294 2.48533 20.8822 2.25586 21.6673 1.93727C21.0718 2.75292 20.3273 3.47936 19.4745 4.06567Z" fill="#6FCF97"/>
</svg>
